<svg xmlns="http://www.w3.org/2000/svg" width="22.997" height="39.677" viewBox="0 0 22.997 39.677">
  <g id="Group_13" data-name="Group 13" transform="translate(-4411 670)">
    <g id="Group_12" data-name="Group 12" transform="translate(4411 -670)">
      <path id="Path_59" data-name="Path 59" d="M192.517,21H210.48A2.527,2.527,0,0,1,213,23.517V58.209a2.486,2.486,0,0,1-2.517,2.467H192.517A2.486,2.486,0,0,1,190,58.209V23.517A2.527,2.527,0,0,1,192.517,21ZM201.5,54.311a2.2,2.2,0,1,1-2.171,2.221A2.211,2.211,0,0,1,201.5,54.311Zm7.995-31.041a.543.543,0,1,1-.543.543A.548.548,0,0,1,209.493,23.27Zm-14.311,0a.543.543,0,1,1,0,1.086.545.545,0,1,1,0-1.086Zm-1.875,0a.543.543,0,1,1-.543.543A.548.548,0,0,1,193.306,23.27Zm5.231.049h5.922a.22.22,0,0,1,.2.148v.79c0,.1-.1.148-.2.148h-5.922a.131.131,0,0,1-.148-.148v-.79A.158.158,0,0,1,198.537,23.319Zm-6.021-1.086H210.48a1.317,1.317,0,0,1,1.332,1.283V58.209a1.317,1.317,0,0,1-1.332,1.283H192.517a1.306,1.306,0,0,1-1.283-1.283V23.517A1.306,1.306,0,0,1,192.517,22.234Z" transform="translate(-190 -21)" fill="#fff" fill-rule="evenodd"/>
    </g>
  </g>
</svg>
