<svg xmlns="http://www.w3.org/2000/svg" width="60.175" height="80" viewBox="0 0 60.175 80">
  <g id="Group_1294" data-name="Group 1294" transform="translate(-919 -5036.104)">
    <path id="Path_380" data-name="Path 380" d="M47.288,59.572a11.049,11.049,0,1,0,13.4,8.04A10.974,10.974,0,0,0,47.288,59.572ZM57.726,74.947a9.05,9.05,0,1,1,1.02-6.851A8.995,8.995,0,0,1,57.726,74.947Z" transform="translate(899.038 5026.104)"/>
    <path id="Path_381" data-name="Path 381" d="M30.356,55.3a5.094,5.094,0,0,0-3.7,6.17h0a5.088,5.088,0,1,0,3.7-6.17Zm1.983,7.933a3.088,3.088,0,1,1,2.246-3.745A3.091,3.091,0,0,1,32.34,63.236Z" transform="translate(899.038 5026.104)"/>
    <path id="Path_382" data-name="Path 382" d="M42.337,55.085a5.09,5.09,0,1,0-2.608-.727A5.1,5.1,0,0,0,42.337,55.085ZM39.7,48.406A3.068,3.068,0,0,1,41.6,47a3.12,3.12,0,0,1,.755-.093,3.09,3.09,0,1,1-2.653,1.5Z" transform="translate(899.038 5026.104)"/>
    <path id="Path_383" data-name="Path 383" d="M54.877,54.358a5.091,5.091,0,1,0-2.317-3.13A5.057,5.057,0,0,0,54.877,54.358Zm-.029-5.952a3.088,3.088,0,1,1-.348,2.338h0A3.065,3.065,0,0,1,54.848,48.406Z" transform="translate(899.038 5026.104)"/>
    <path id="Path_384" data-name="Path 384" d="M68.412,65.178a5.088,5.088,0,1,0-4.938-3.855A5.049,5.049,0,0,0,68.412,65.178Zm-.752-8.084a3.088,3.088,0,1,1-2.247,3.744A3.094,3.094,0,0,1,67.66,57.094Z" transform="translate(899.038 5026.104)"/>
    <path id="Path_385" data-name="Path 385" d="M50.741,10.279a1,1,0,0,0-1.394.008A168.741,168.741,0,0,0,34.705,27.238C24.923,40.273,19.962,51.267,19.962,59.912a30.087,30.087,0,1,0,60.175,0C80.137,38.768,51.942,11.433,50.741,10.279ZM50.049,88A28.119,28.119,0,0,1,21.962,59.912c0-17.927,23.7-43.006,28.095-47.5,4.41,4.418,28.08,29,28.08,47.5A28.12,28.12,0,0,1,50.049,88Z" transform="translate(899.038 5026.104)"/>
  </g>
</svg>
