<svg xmlns="http://www.w3.org/2000/svg" width="17.665" height="17.665" viewBox="0 0 17.665 17.665">
  <g id="Group_9" data-name="Group 9" transform="translate(0 0)">
    <path id="Path_53" data-name="Path 53" d="M-177.822,78.529c2.358,0,2.638.009,3.569.052a4.879,4.879,0,0,1,1.641.3,2.736,2.736,0,0,1,1.016.661,2.731,2.731,0,0,1,.66,1.015,4.9,4.9,0,0,1,.3,1.64c.042.931.051,1.21.051,3.569s-.008,2.639-.051,3.57a4.888,4.888,0,0,1-.3,1.64A2.734,2.734,0,0,1-171.6,92a2.747,2.747,0,0,1-1.016.661,4.879,4.879,0,0,1-1.641.3c-.931.042-1.21.052-3.569.052s-2.638-.009-3.569-.052a4.879,4.879,0,0,1-1.64-.3A2.747,2.747,0,0,1-184.047,92a2.734,2.734,0,0,1-.66-1.016,4.889,4.889,0,0,1-.3-1.64c-.042-.931-.051-1.21-.051-3.57s.008-2.638.051-3.569a4.9,4.9,0,0,1,.3-1.64,2.731,2.731,0,0,1,.66-1.015,2.736,2.736,0,0,1,1.016-.661,4.879,4.879,0,0,1,1.64-.3c.931-.042,1.21-.052,3.569-.052m0-1.591c-2.4,0-2.7.01-3.642.053a6.467,6.467,0,0,0-2.144.411,4.322,4.322,0,0,0-1.564,1.018,4.331,4.331,0,0,0-1.019,1.565,6.483,6.483,0,0,0-.411,2.143c-.042.942-.052,1.243-.052,3.642s.01,2.7.052,3.642a6.483,6.483,0,0,0,.411,2.143,4.346,4.346,0,0,0,1.019,1.565,4.333,4.333,0,0,0,1.564,1.018,6.489,6.489,0,0,0,2.144.411c.942.043,1.243.053,3.642.053s2.7-.01,3.642-.053a6.49,6.49,0,0,0,2.144-.411,4.333,4.333,0,0,0,1.564-1.018,4.346,4.346,0,0,0,1.019-1.565,6.506,6.506,0,0,0,.411-2.143c.042-.942.052-1.243.052-3.642s-.01-2.7-.052-3.642a6.505,6.505,0,0,0-.411-2.143,4.332,4.332,0,0,0-1.019-1.565,4.322,4.322,0,0,0-1.564-1.018,6.468,6.468,0,0,0-2.144-.411c-.942-.043-1.243-.053-3.642-.053" transform="translate(186.654 -76.938)" fill="#fff"/>
    <path id="Path_54" data-name="Path 54" d="M-177.042,82.014a4.536,4.536,0,0,0-4.536,4.536,4.536,4.536,0,0,0,4.536,4.536,4.536,4.536,0,0,0,4.535-4.536,4.536,4.536,0,0,0-4.535-4.536m0,7.48a2.945,2.945,0,0,1-2.944-2.945,2.944,2.944,0,0,1,2.944-2.944,2.944,2.944,0,0,1,2.944,2.944,2.945,2.945,0,0,1-2.944,2.945" transform="translate(185.875 -77.717)" fill="#fff"/>
    <path id="Path_55" data-name="Path 55" d="M-169.782,81.61a1.06,1.06,0,0,1-1.06,1.061,1.06,1.06,0,0,1-1.06-1.061,1.06,1.06,0,0,1,1.06-1.06,1.06,1.06,0,0,1,1.06,1.06" transform="translate(184.389 -77.492)" fill="#fff"/>
  </g>
</svg>
