<svg xmlns="http://www.w3.org/2000/svg" width="71.72" height="56.86" viewBox="0 0 71.72 56.86">
  <g id="Group_1293" data-name="Group 1293" transform="translate(-578 -5046.112)">
    <ellipse id="Ellipse_88" data-name="Ellipse 88" cx="5.406" cy="5.405" rx="5.406" ry="5.405" transform="translate(608.455 5092.161)"/>
    <path id="Path_377" data-name="Path 377" d="M41.412,17.733a18.294,18.294,0,0,0-25.843,0l2.908,2.908a14.178,14.178,0,0,1,20.026,0Z" transform="translate(585.374 5066.177)"/>
    <path id="Path_378" data-name="Path 378" d="M12.78,18.533l2.908,2.908a30.423,30.423,0,0,1,42.969,0l2.908-2.908A34.54,34.54,0,0,0,12.78,18.533Z" transform="translate(576.689 5053.903)"/>
    <path id="Path_379" data-name="Path 379" d="M45.852,4.5A50.386,50.386,0,0,0,9.992,19.355L12.9,22.263a46.6,46.6,0,0,1,65.9,0l2.908-2.908A50.386,50.386,0,0,0,45.852,4.5Z" transform="translate(568.008 5041.612)"/>
  </g>
</svg>
