<svg xmlns="http://www.w3.org/2000/svg" width="62" height="63.996" viewBox="0 0 62 63.996">
  <g id="Group_1295" data-name="Group 1295" transform="translate(-1266 -5049.502)">
    <path id="Path_386" data-name="Path 386" d="M56.6,41.412,45.771,36.418l-5.786-3.956.032-4.558A12.043,12.043,0,0,0,42.895,24H43.5a4.488,4.488,0,0,0,.5-8.95V4.839A4.02,4.02,0,0,0,40.828.918a43.089,43.089,0,0,0-17.657,0A4.02,4.02,0,0,0,20,4.839V15.05A4.488,4.488,0,0,0,20.5,24h.605A12.042,12.042,0,0,0,24,27.919v4.554l-5.771,3.945L7.4,41.412A11.032,11.032,0,0,0,1,51.4V63a1,1,0,0,0,2,0V51.4a9.027,9.027,0,0,1,5.232-8.173L10,42.414V63a1,1,0,0,0,2,0V41.492l6.41-2.955L35,60.559V63a1,1,0,0,0,2,0V60.224a1,1,0,0,0-.2-.6l-3.547-4.708L45.59,38.537,52,41.492V63a1,1,0,0,0,2,0V42.414l1.768.815A9.027,9.027,0,0,1,61,51.4V63a1,1,0,0,0,2,0V51.4a11.032,11.032,0,0,0-6.4-9.989ZM35.7,48.339l-.543-1.2,1.607-2.075.879.7ZM30.49,46,28.8,43.818,32,41.277l3.2,2.541L33.51,46Zm-4.135-.24.879-.7,1.607,2.074-.543,1.2Zm12.492-1.6L33.5,39.914l5.621-5.62,4.728,3.231ZM46,19.5A2.5,2.5,0,0,1,43.621,22,12.982,12.982,0,0,0,44,19V17.05a2.505,2.505,0,0,1,2,2.45ZM22,4.839a2.012,2.012,0,0,1,1.583-1.964,41.076,41.076,0,0,1,16.834,0A2.012,2.012,0,0,1,42,4.839V9.182a42.94,42.94,0,0,0-20,0ZM20.379,22A2.5,2.5,0,0,1,20,17.05V19a13.2,13.2,0,0,0,.379,3ZM22,19V11.26a40.891,40.891,0,0,1,20,0V19a10,10,0,1,1-20,0ZM32,31a11.91,11.91,0,0,0,6.006-1.627l-.022,3.23L32,38.586l-6-6v-3.21A11.911,11.911,0,0,0,32,31Zm-7.121,3.294,5.621,5.62L25.179,44.14l-5.023-6.617ZM29.67,50.16,30.646,48h2.709l.975,2.16L32,53.252ZM32,61a1,1,0,1,1-1-1A1,1,0,0,1,32,61Z" transform="translate(1265 5049.498)"/>
  </g>
</svg>
