<svg xmlns="http://www.w3.org/2000/svg" width="199.598" height="101.006" viewBox="0 0 199.598 101.006">
  <g id="Group_8" data-name="Group 8" transform="translate(-132.565 -104.617)">
    <g id="Group_5" data-name="Group 5" transform="translate(132.565 173.83)">
      <g id="Group_4" data-name="Group 4">
        <path id="Path_18" data-name="Path 18" d="M134.291,235.964v-2.906q0-.434-.01-.69c-.007-.171-.017-.332-.03-.484a1.729,1.729,0,0,0-.2-.75,1.049,1.049,0,0,0-.654-.389,1.384,1.384,0,0,0-.327-.072c-.139-.017-.255-.029-.347-.036s-.158-.05-.158-.127c0-.1.106-.144.318-.128s.462.039.714.064l.7.073q.327.034.555.061c.152.018.242.027.268.03.053,0,.176.01.367.018s.409.018.654.03l.724.035c.238.011.436.023.595.035a13.556,13.556,0,0,1,1.895.275,3.944,3.944,0,0,1,2.154,1.171,3.6,3.6,0,0,1,.8,1.292,2.543,2.543,0,0,1,.15.878,4.217,4.217,0,0,1-.534,2.013,7.337,7.337,0,0,1-1.864,2.09q1.232,1.488,2.246,2.682c.676.8,1.3,1.484,1.888,2.046a4.55,4.55,0,0,0,1.431,1.011,4.847,4.847,0,0,0,.993.288c.184.025.344.039.477.046s.231.009.3.009c.119,0,.179.036.179.106a.113.113,0,0,1-.1.114,1.749,1.749,0,0,1-.378.026l-1.41,0a8.875,8.875,0,0,1-1.291-.074,2.645,2.645,0,0,1-.834-.271,4.046,4.046,0,0,1-1.232-.972c-.4-.444-.882-1.015-1.451-1.718q-.319-.388-.636-.8t-.606-.784q-.288-.374-.537-.685t-.387-.5a.384.384,0,0,0-.258-.119l-2.442-.116c-.092,0-.139.045-.139.145v.449q0,1.348.01,2.406a16.4,16.4,0,0,0,.09,1.657,2.121,2.121,0,0,0,.179.693.73.73,0,0,0,.6.338c.143.021.308.045.487.057s.314.02.407.02.159.037.159.111c0,.1-.106.149-.318.148q-.418,0-.834-.01l-.765-.02q-.348-.01-.576-.019c-.152-.007-.242-.01-.269-.01q-.417.018-.715.027l-.616.018c-.212.006-.391.009-.536.009q-.318,0-.318-.153c0-.075.053-.113.159-.113a2.52,2.52,0,0,0,.3-.018,2.663,2.663,0,0,0,.3-.056.536.536,0,0,0,.407-.338,3.137,3.137,0,0,0,.169-.7,14.2,14.2,0,0,0,.089-1.67q.01-1.065.009-2.425Zm1.588,1.7a.252.252,0,0,0,.139.23,2.513,2.513,0,0,0,.824.244,9.15,9.15,0,0,0,1.261.128,4.646,4.646,0,0,0,.754-.039,1.823,1.823,0,0,0,.735-.259,2.361,2.361,0,0,0,.863-1.021,4.573,4.573,0,0,0-.569-4.488,3.554,3.554,0,0,0-2.521-1.147,7.828,7.828,0,0,0-.813-.02,3.593,3.593,0,0,0-.516.038.2.2,0,0,0-.159.214Z" transform="translate(-132.565 -230.38)" fill="#fff"/>
        <path id="Path_19" data-name="Path 19" d="M157.9,239.664a5.389,5.389,0,0,1,1.248-1.856,6.084,6.084,0,0,1,2.152-1.33,7.615,7.615,0,0,1,3.115-.4,10.069,10.069,0,0,1,2.74.517,7.283,7.283,0,0,1,2.2,1.175,5.469,5.469,0,0,1,1.453,1.741,4.747,4.747,0,0,1,.531,2.235,5.073,5.073,0,0,1-.5,2.233,5.57,5.57,0,0,1-1.416,1.834,6.928,6.928,0,0,1-2.212,1.247,8.486,8.486,0,0,1-2.869.466,8.039,8.039,0,0,1-3.079-.533,6.235,6.235,0,0,1-2.127-1.4,5.568,5.568,0,0,1-1.234-1.927,5.9,5.9,0,0,1-.4-2.077A5.219,5.219,0,0,1,157.9,239.664Zm1.822,3.935a5.2,5.2,0,0,0,1.165,1.8,5.1,5.1,0,0,0,1.75,1.136,6,6,0,0,0,2.2.4,6.6,6.6,0,0,0,1.4-.175,4.3,4.3,0,0,0,1.548-.7,4.189,4.189,0,0,0,1.259-1.464,5.167,5.167,0,0,0,.511-2.488,5.735,5.735,0,0,0-.431-2.273,5.049,5.049,0,0,0-1.155-1.689,5.331,5.331,0,0,0-1.669-1.076,5.977,5.977,0,0,0-1.976-.44,6.278,6.278,0,0,0-2.014.2,4.066,4.066,0,0,0-1.587.829,3.868,3.868,0,0,0-1.04,1.471,5.441,5.441,0,0,0-.374,2.115A6.378,6.378,0,0,0,159.717,243.6Z" transform="translate(-143.773 -232.936)" fill="#fff"/>
        <path id="Path_20" data-name="Path 20" d="M188.031,244.221a3,3,0,0,0-.091-.84,2.31,2.31,0,0,0-.289-.585c-.026-.033-.106-.14-.239-.323s-.3-.407-.5-.674-.415-.554-.647-.861l-.687-.909q-.339-.447-.618-.821l-.418-.561a4.85,4.85,0,0,0-.617-.671,3.508,3.508,0,0,0-.537-.405,1.8,1.8,0,0,0-.417-.169,1.66,1.66,0,0,0-.318-.065c-.119-.005-.179-.052-.179-.141,0-.067.073-.1.218-.09.08,0,.212.013.4.028s.37.025.556.034.37.02.516.032.232.019.258.02c.066,0,.248.006.546.009s.619.012.963.028a.481.481,0,0,1,.2.034.086.086,0,0,1,.04.075c0,.044-.1.084-.278.135-.142.041-.218.122-.218.221a.609.609,0,0,0,.07.282,2.054,2.054,0,0,0,.169.27c1.275,1.794,1.912,2.678,3.187,4.424a5.544,5.544,0,0,1,.307-.463q.228-.318.515-.715t.614-.822q.327-.426.614-.81t.505-.673q.217-.29.3-.4a1.868,1.868,0,0,0,.228-.391.831.831,0,0,0,.068-.3.343.343,0,0,0-.278-.364c-.168-.042-.259-.1-.259-.171q0-.08.278-.069.338.014.725.046c.258.021.42.033.487.036.026,0,.116,0,.268,0s.321,0,.506.013.368.012.546.014.308,0,.387.008c.145.005.218.035.218.087a.121.121,0,0,1-.059.092.237.237,0,0,1-.158.041,2.146,2.146,0,0,0-.377.025,1.752,1.752,0,0,0-.437.118,1.982,1.982,0,0,0-.427.246q-.168.129-.446.39-.139.139-.426.456t-.633.739q-.347.42-.723.892t-.7.905q-.327.435-.574.768a4.866,4.866,0,0,0-.327.477,1.38,1.38,0,0,0-.217.707l0,.663,0,1.181q0,.178.011.566c.007.259.02.534.052.809a1.15,1.15,0,0,0,.16.494.724.724,0,0,0,.517.236c.116.018.261.039.427.049s.288.017.368.017.139.038.139.112-.092.113-.278.113c-.238,0-.484,0-.735-.009l-.7-.017c-.212-.005-.387-.012-.526-.016s-.222-.009-.248-.009l-.228.008c-.126,0-.278.01-.457.015l-.546.016q-.278.007-.477.008c-.185,0-.278-.038-.278-.115s.046-.114.139-.114a2.329,2.329,0,0,0,.259-.016,1.752,1.752,0,0,0,.258-.048.488.488,0,0,0,.376-.236,1.4,1.4,0,0,0,.138-.5,7.373,7.373,0,0,0,.038-.814v-.57Z" transform="translate(-155.008 -233.404)" fill="#fff"/>
        <path id="Path_21" data-name="Path 21" d="M207.01,238.417a2.257,2.257,0,0,1,.237-.413.222.222,0,0,1,.179-.087.235.235,0,0,1,.209.14q.07.135.21.358.079.143.349.665t.649,1.255l.828,1.6q.449.868.888,1.709t.828,1.59c.259.5.488.916.668,1.242a5.143,5.143,0,0,0,.449.708,2.718,2.718,0,0,0,.4.415,1.331,1.331,0,0,0,.348.215,2.161,2.161,0,0,0,.3.092,2.851,2.851,0,0,0,.378.062c.119.01.225.015.318.016a.473.473,0,0,1,.149.023.085.085,0,0,1,.07.083c0,.041-.04.069-.119.084a1.531,1.531,0,0,1-.278.023h-1.032q-.378,0-.824-.008c-.3-.006-.6-.009-.9-.024-.17-.008-.318-.018-.436-.023s-.179-.029-.179-.07.01-.048.03-.053a.839.839,0,0,0,.089-.039.723.723,0,0,0,.169-.108c.059-.051.056-.133-.01-.247-.631-1.2-.946-1.808-1.577-3.024a.194.194,0,0,0-.159-.08l-4.032-.057a.188.188,0,0,0-.178.108c-.4.85-.593,1.276-.988,2.133a2.165,2.165,0,0,0-.256.9.287.287,0,0,0,.19.285,1.06,1.06,0,0,0,.407.08h.159c.119,0,.179.037.179.11s-.086.111-.258.111c-.106,0-.238,0-.4-.008l-.477-.017-.427-.016c-.126-.006-.215-.008-.268-.008s-.123,0-.248.008l-.437.015-.537.015c-.192,0-.374.008-.546.008q-.338,0-.338-.113c0-.074.053-.111.158-.111.067,0,.152,0,.258-.008a2.426,2.426,0,0,0,.258-.024,1.374,1.374,0,0,0,.9-.4,3.718,3.718,0,0,0,.564-.839C204.555,243.336,205.373,241.681,207.01,238.417Zm1.96,5.56c.053,0,.073-.03.059-.092-.695-1.456-1.042-2.189-1.737-3.664-.107-.2-.206-.2-.3-.008-.648,1.436-.972,2.158-1.62,3.612-.026.062-.007.094.06.1Z" transform="translate(-163.237 -233.769)" fill="#fff"/>
        <path id="Path_22" data-name="Path 22" d="M229.2,244.924q0,.709.013,1.214t.052.844a2.546,2.546,0,0,0,.11.535.607.607,0,0,0,.189.287,1.652,1.652,0,0,0,.756.235,13.63,13.63,0,0,0,1.57.071q.694,0,1.241-.05a1.3,1.3,0,0,0,1.131-.666,1.317,1.317,0,0,0,.148-.378.176.176,0,0,1,.178-.162c.079,0,.119.065.119.194,0,.03-.007.1-.019.2s-.033.218-.059.341-.052.252-.079.386a1.928,1.928,0,0,1-.1.334.812.812,0,0,1-.089.185.281.281,0,0,1-.158.1,1.835,1.835,0,0,1-.308.045c-.133.009-.318.014-.556.014-1.218,0-2.236-.021-3.039-.047-.395-.013-.748-.018-1.053-.023s-.589-.008-.854-.008h-.258c-.133,0-.285,0-.457.014s-.364.018-.536.023-.331.008-.477.007q-.278,0-.278-.107t.139-.106c.08,0,.169,0,.268-.015a2.39,2.39,0,0,0,.268-.045.411.411,0,0,0,.327-.22,2.81,2.81,0,0,0,.128-.461,6.414,6.414,0,0,0,.087-1.121q.008-.726.006-1.666c0-.909,0-1.363-.006-2.272l0-1.211,0-.757c0-.2,0-.361-.011-.477s-.018-.225-.031-.326a1.139,1.139,0,0,0-.16-.5.806.806,0,0,0-.557-.229c-.067-.012-.162-.023-.288-.032s-.229-.014-.308-.017-.139-.04-.139-.111.092-.1.278-.1.411.015.636.027.43.021.616.026.364.014.5.023.212.014.238.014h.258q.239,0,.537.008t.616.011q.318,0,.516.008c.185,0,.278.043.279.113s-.047.089-.139.086c-.066,0-.152,0-.258,0s-.212.007-.318.013a.721.721,0,0,0-.506.2,1,1,0,0,0-.148.5c0,.095,0,.209-.009.324s-.009.274-.009.474l0,.754,0,1.205C229.2,243.55,229.2,244.008,229.2,244.924Z" transform="translate(-174.627 -234.184)" fill="#fff"/>
        <path id="Path_23" data-name="Path 23" d="M257.334,240.872q0-.842,0-1.379l0-.856q0-.333-.011-.529c-.007-.131-.018-.255-.03-.371a1.078,1.078,0,0,0-.2-.57,1.093,1.093,0,0,0-.657-.276,1.71,1.71,0,0,0-.328-.044q-.209-.012-.348-.016c-.106,0-.159-.033-.159-.091,0-.078.106-.113.318-.108s.464.014.715.025l.706.031.556.027c.152.009.242.013.269.014q.079,0,.368,0h1.381q.357,0,.6.005a17.092,17.092,0,0,1,1.9.146,5.055,5.055,0,0,1,1.74.555,4.214,4.214,0,0,1,.418.286,2.925,2.925,0,0,1,.447.429,2.541,2.541,0,0,1,.359.563,1.6,1.6,0,0,1,.15.688,2.864,2.864,0,0,1-.534,1.6,6.575,6.575,0,0,1-1.865,1.679q1.233,1.145,2.248,2.078c.676.622,1.306,1.162,1.889,1.6a4.745,4.745,0,0,0,1.431.8,5.862,5.862,0,0,0,.993.228c.184.02.344.031.477.036s.232.007.3.007c.119,0,.179.029.179.085s-.033.078-.1.092a2.139,2.139,0,0,1-.377.021h-1.411a11.118,11.118,0,0,1-1.291-.057,3.2,3.2,0,0,1-.835-.215,4.09,4.09,0,0,1-1.232-.766q-.6-.523-1.452-1.342-.319-.3-.637-.62l-.607-.606q-.289-.289-.538-.528c-.166-.159-.3-.287-.388-.384a.44.44,0,0,0-.258-.089l-2.444-.051c-.092,0-.139.037-.139.114v.347q0,1.041.013,1.858a9.843,9.843,0,0,0,.092,1.28,1.354,1.354,0,0,0,.18.535.784.784,0,0,0,.6.26c.143.017.308.034.487.044s.315.015.407.015.159.029.159.086c0,.077-.106.115-.318.115q-.417,0-.834-.008l-.764-.015-.576-.014c-.152-.005-.242-.008-.268-.008-.278.009-.517.017-.715.021l-.616.014c-.212,0-.391.007-.537.007-.212,0-.318-.039-.318-.117,0-.058.053-.087.159-.087s.192,0,.3-.014.207-.028.3-.043a.522.522,0,0,0,.407-.261,1.97,1.97,0,0,0,.168-.537,8.323,8.323,0,0,0,.087-1.283q.009-.819.007-1.864Zm1.592,1.28a.19.19,0,0,0,.139.175,3.035,3.035,0,0,0,.825.175,11.867,11.867,0,0,0,1.262.078,5.947,5.947,0,0,0,.755-.043,2.2,2.2,0,0,0,.735-.215,2.11,2.11,0,0,0,.863-.817,2.578,2.578,0,0,0,.346-1.379,2.64,2.64,0,0,0-.918-2.122,3.911,3.911,0,0,0-2.525-.81q-.457-.009-.815.013a4.665,4.665,0,0,0-.516.047.172.172,0,0,0-.159.17C258.921,239.315,258.922,240.261,258.925,242.152Z" transform="translate(-187.887 -233.19)" fill="#fff"/>
        <path id="Path_24" data-name="Path 24" d="M282.952,243.513q0-.694,0-1.134v-.709c0-.189,0-.338-.01-.447s-.018-.21-.03-.3a1,1,0,0,0-.16-.47.815.815,0,0,0-.556-.2c-.067-.01-.162-.018-.288-.025s-.228-.009-.308-.01-.139-.035-.139-.1.092-.1.278-.1.411.007.636.014.437.012.636.014.368.007.507.013l.248.01.318,0,.715.007.934.009.974.008.795.007c.226,0,.373,0,.438,0,.167,0,.331-.019.477-.032s.255-.021.318-.033a.851.851,0,0,0,.119-.035.361.361,0,0,1,.119-.02c.053,0,.079.038.079.113a.529.529,0,0,1-.05.19,1.761,1.761,0,0,0-.089.374c0,.028,0,.077-.01.147s-.017.148-.029.232-.024.165-.03.24a.706.706,0,0,1-.03.169.323.323,0,0,1-.059.084.132.132,0,0,1-.1.042c-.093,0-.139-.053-.139-.156a1.235,1.235,0,0,0-.02-.19.756.756,0,0,0-.08-.233.43.43,0,0,0-.109-.127.64.64,0,0,0-.209-.1,2.929,2.929,0,0,0-.358-.08c-.146-.024-.343-.043-.577-.068-.078-.008-.245-.018-.5-.025l-.8-.02q-.428-.011-.785-.014l-.437,0c-.067,0-.1.041-.1.126,0,1.308,0,1.962,0,3.27,0,.085.033.128.1.128l.477,0,.914,0q.5,0,.933,0c.292,0,.49-.01.6-.019.211-.018.384-.034.516-.047a.7.7,0,0,0,.338-.118.922.922,0,0,1,.258-.154.088.088,0,0,1,.1.1.881.881,0,0,1-.05.211,4.224,4.224,0,0,0-.089.451,4.426,4.426,0,0,0-.059.445c-.013.174-.02.284-.019.331a.4.4,0,0,1-.03.149.122.122,0,0,1-.129.077c-.08,0-.119-.037-.119-.113a1.687,1.687,0,0,0-.01-.184.811.811,0,0,0-.07-.211.486.486,0,0,0-.209-.227,1.867,1.867,0,0,0-.686-.144c-.119-.01-.311-.02-.576-.031s-.537-.019-.814-.025-.537-.009-.775-.01l-.477,0q-.119,0-.119.084v2.7c0,.179,0,.3,0,.354a1.413,1.413,0,0,0,.1.488.577.577,0,0,0,.308.3,1.929,1.929,0,0,0,.626.141q.4.035,1.053.036.338,0,.874-.014a3.333,3.333,0,0,0,.874-.112,1.375,1.375,0,0,0,.526-.288,1.16,1.16,0,0,0,.268-.543c.031-.117.1-.183.178-.183a.093.093,0,0,1,.1.056.381.381,0,0,1,.02.127c0,.019-.007.078-.02.176s-.033.211-.059.338-.053.249-.079.367a2.069,2.069,0,0,1-.079.275.45.45,0,0,1-.109.176.418.418,0,0,1-.168.092,1.27,1.27,0,0,1-.269.035q-.168.007-.427.007-.993,0-1.748-.014c-.5-.01-.938-.015-1.291-.029s-.675-.029-.914-.029h-.795c-.146,0-.311,0-.5.014s-.348.016-.526.021-.341.007-.487.007c-.185,0-.278-.034-.278-.1s.046-.1.139-.1a1.894,1.894,0,0,0,.268-.021c.1-.014.189-.026.269-.035a.361.361,0,0,0,.327-.2,2.711,2.711,0,0,0,.128-.44,5.6,5.6,0,0,0,.089-1.049q.009-.68.008-1.56C282.953,244.789,282.952,244.364,282.952,243.513Z" transform="translate(-199.515 -234.697)" fill="#fff"/>
        <path id="Path_25" data-name="Path 25" d="M309.694,246.067c0-.243-.007-.438-.02-.583a.871.871,0,0,0-.089-.344.4.4,0,0,0-.228-.183,2.547,2.547,0,0,0-.417-.1c-.067-.009-.162-.016-.288-.021s-.228-.007-.308-.007-.139-.033-.139-.1.092-.1.278-.1.414,0,.646.007.447.007.646.007.371,0,.517.006l.259.007.219-.007c.132,0,.284-.008.457-.008s.37,0,.556-.008.344-.008.477-.008c.185,0,.278.032.278.1s-.047.1-.139.1h-.2a2.013,2.013,0,0,0-.239.029.808.808,0,0,0-.486.19.842.842,0,0,0-.169.471c-.018.182-.02.38-.02.576v.66c0,.534,0,.8,0,1.335a1.766,1.766,0,0,1-.04.5.316.316,0,0,1-.2.147,6.011,6.011,0,0,1-.9.253c-.324.066-.653.12-.983.162s-.655.073-.973.091-.6.028-.854.028q-.5,0-1.182-.035a12.378,12.378,0,0,1-3.039-.555,7.3,7.3,0,0,1-1.54-.69,4.614,4.614,0,0,1-.775-.591,4.365,4.365,0,0,1-.666-.789,4.274,4.274,0,0,1-.467-.95,3.25,3.25,0,0,1-.179-1.077,3.609,3.609,0,0,1,.238-1.329,4.111,4.111,0,0,1,.635-1.1,4.444,4.444,0,0,1,.934-.861,6.537,6.537,0,0,1,1.113-.622,8.372,8.372,0,0,1,2.414-.627,22.171,22.171,0,0,1,2.236-.124q.417,0,.845.021t.795.056q.368.035.646.069l.4.049q.278.041.676.083a6.989,6.989,0,0,0,.736.04c.145,0,.219.037.219.112a.88.88,0,0,1-.02.168,2.228,2.228,0,0,0-.03.288c-.007.127-.017.288-.03.485s-.02.445-.02.745a.3.3,0,0,1-.05.2.2.2,0,0,1-.149.05c-.079,0-.109-.072-.119-.182a1.918,1.918,0,0,0-.1-.344,1.127,1.127,0,0,0-.3-.442,3.316,3.316,0,0,0-1.332-.63,9.892,9.892,0,0,0-2.7-.294,13.746,13.746,0,0,0-1.729.117,5.579,5.579,0,0,0-1.928.649,3.3,3.3,0,0,0-1.241,1.177,3.347,3.347,0,0,0-.487,1.827,3.4,3.4,0,0,0,.2,1.175,4.375,4.375,0,0,0,.487.964,4.2,4.2,0,0,0,.606.718,4.248,4.248,0,0,0,.556.45,7.176,7.176,0,0,0,2.156.97,9.34,9.34,0,0,0,2.314.281q.457,0,1-.042a2.93,2.93,0,0,0,.884-.183,1.992,1.992,0,0,0,.258-.133.253.253,0,0,0,.1-.232Z" transform="translate(-207.62 -234.668)" fill="#fff"/>
        <path id="Path_26" data-name="Path 26" d="M328.3,243.524v-1.83c0-.187,0-.336-.01-.443s-.017-.209-.03-.3a.971.971,0,0,0-.159-.464.8.8,0,0,0-.556-.194c-.067-.009-.162-.015-.288-.02s-.228-.005-.308-.005-.14-.032-.14-.1.093-.1.278-.1.411,0,.636,0,.437,0,.636,0,.367,0,.506,0l.249.005.318,0,.716,0,.934-.007.974-.008.795-.007c.226,0,.373,0,.438,0,.167-.006.331-.024.477-.04s.255-.026.318-.039a.8.8,0,0,0,.119-.037.365.365,0,0,1,.119-.022c.052,0,.079.037.079.112a.539.539,0,0,1-.05.191,1.777,1.777,0,0,0-.09.376q0,.043-.01.149c-.007.071-.017.149-.03.234s-.023.165-.03.24a.678.678,0,0,1-.03.17.3.3,0,0,1-.059.086.132.132,0,0,1-.1.043c-.094,0-.139-.051-.139-.155a1.232,1.232,0,0,0-.02-.19.733.733,0,0,0-.079-.233.436.436,0,0,0-.109-.127.629.629,0,0,0-.209-.1,2.711,2.711,0,0,0-.358-.074c-.145-.023-.342-.038-.576-.059-.078-.007-.245-.014-.5-.018l-.805-.008q-.428,0-.785,0l-.437,0c-.067,0-.1.043-.1.127,0,1.3,0,1.954,0,3.256,0,.084.033.127.1.126l.477,0,.914,0q.5,0,.934-.011t.6-.024c.211-.02.384-.037.517-.052a.705.705,0,0,0,.338-.122.958.958,0,0,1,.259-.157.087.087,0,0,1,.1.1.882.882,0,0,1-.05.212,4.246,4.246,0,0,0-.09.453c-.021.119-.046.272-.06.446s-.02.285-.02.332a.415.415,0,0,1-.03.149.123.123,0,0,1-.129.078q-.119,0-.119-.112c0-.057,0-.118-.01-.184a.833.833,0,0,0-.069-.212.481.481,0,0,0-.209-.225,1.839,1.839,0,0,0-.685-.138c-.119-.009-.311-.017-.576-.026s-.537-.014-.815-.018-.537,0-.775,0l-.477,0c-.08,0-.119.029-.119.085V246.1q0,.3,0,.62v.606c0,.179,0,.3,0,.353a1.4,1.4,0,0,0,.1.486.572.572,0,0,0,.308.3,1.932,1.932,0,0,0,.625.14q.4.035,1.053.035.338,0,.874-.014a3.352,3.352,0,0,0,.874-.114,1.373,1.373,0,0,0,.527-.291,1.167,1.167,0,0,0,.269-.545c.032-.118.1-.184.179-.184a.092.092,0,0,1,.1.056.386.386,0,0,1,.02.128q0,.028-.02.177c-.013.1-.034.212-.06.34s-.053.25-.08.368a2.147,2.147,0,0,1-.08.276.448.448,0,0,1-.109.177.416.416,0,0,1-.169.092,1.22,1.22,0,0,1-.268.036q-.169.007-.427.007-.993,0-1.748-.014c-.5-.009-.938-.014-1.291-.028s-.675-.028-.914-.028h-.795q-.219,0-.5.014c-.172.009-.347.017-.527.021s-.341.007-.486.007c-.185,0-.278-.033-.278-.1s.046-.1.139-.1a1.9,1.9,0,0,0,.268-.021c.1-.014.189-.026.268-.035a.362.362,0,0,0,.328-.2,2.7,2.7,0,0,0,.129-.436,5.6,5.6,0,0,0,.09-1.042q.01-.676.01-1.549Z" transform="translate(-219.911 -234.667)" fill="#fff"/>
        <path id="Path_27" data-name="Path 27" d="M347.769,247.338a5.846,5.846,0,0,0,.058.619,1.5,1.5,0,0,0,.118.413.584.584,0,0,0,.2.242.777.777,0,0,0,.3.107,4.461,4.461,0,0,0,.5.057q.258.014.378.014c.092,0,.139.033.139.1s-.107.1-.319.1q-.755,0-1.241-.021c-.325-.014-.526-.021-.606-.021s-.282.007-.606.021-.685.021-1.083.022c-.185,0-.278-.034-.278-.1s.046-.1.139-.1q.1,0,.308-.014a3.431,3.431,0,0,0,.407-.057.561.561,0,0,0,.259-.114.52.52,0,0,0,.149-.256,2.257,2.257,0,0,0,.07-.448q.02-.277.02-.69c0-2.77.005-4.155.009-6.924a1.129,1.129,0,0,1,.07-.491.2.2,0,0,1,.168-.123.608.608,0,0,1,.348.13l.327.231c.066.047.265.194.6.441l1.251.933q.753.561,1.707,1.267t1.965,1.443q.654.482,1.3.974t1.21.921q.565.429.992.76t.625.474c-.067-2.466-.1-3.7-.168-6.162a2.254,2.254,0,0,0-.138-.837.6.6,0,0,0-.516-.294c-.157-.018-.325-.028-.5-.035s-.292-.009-.358-.008-.106-.013-.119-.041a.177.177,0,0,1-.02-.072c0-.058.112-.089.338-.093q.6-.011,1.132-.007t.7,0q.159,0,.556-.025t.934-.034c.211,0,.318.023.318.081,0,.02-.017.044-.05.074a.225.225,0,0,1-.15.046l-.158,0a1.936,1.936,0,0,0-.258.034.99.99,0,0,0-.339.108.478.478,0,0,0-.179.2.966.966,0,0,0-.08.313,4.552,4.552,0,0,0-.021.465c-.021,2.889-.032,4.333-.053,7.22,0,.2,0,.363-.011.478s-.014.206-.02.269a.175.175,0,0,1-.04.116.122.122,0,0,1-.07.021.43.43,0,0,1-.139-.029,2.107,2.107,0,0,1-.228-.109q-.149-.079-.377-.224t-.586-.39c-.04-.029-.215-.152-.526-.368s-.684-.484-1.121-.8-.912-.668-1.429-1.043-1.009-.733-1.468-1.075c-.5-.374-1-.749-1.479-1.112s-.93-.7-1.34-1-.764-.57-1.062-.8-.513-.389-.646-.492C347.654,243.913,347.692,245.054,347.769,247.338Z" transform="translate(-228.233 -234.546)" fill="#fff"/>
        <path id="Path_28" data-name="Path 28" d="M379.192,245q0,.917.006,1.628a8.9,8.9,0,0,0,.067,1.1,1.046,1.046,0,0,0,.159.451.741.741,0,0,0,.516.214c.117.017.261.035.427.044s.288.015.368.015.139.035.138.1-.092.1-.278.1q-.357,0-.725-.007l-.675-.014-.516-.015-.248-.007-.248.008-.5.015-.576.015c-.192,0-.355.008-.486.008-.186,0-.278-.035-.278-.1s.046-.088.139-.088.166-.006.259-.015a1.9,1.9,0,0,0,.258-.045.491.491,0,0,0,.378-.222,1.34,1.34,0,0,0,.14-.457,8.658,8.658,0,0,0,.072-1.091q.012-.707.013-1.621c0-2.105.007-3.157.012-5.262l-2.523.086a6.955,6.955,0,0,0-1.2.12,1.112,1.112,0,0,0-.566.311,1.341,1.341,0,0,0-.2.244c-.027.054-.059.108-.08.155a.188.188,0,0,1-.179.12.163.163,0,0,1-.079-.02.082.082,0,0,1-.04-.08,1.447,1.447,0,0,1,.061-.249q.059-.2.129-.433c.047-.151.09-.293.13-.425a1.316,1.316,0,0,0,.06-.242c.026-.039.056-.089.09-.148s.063-.089.09-.089a.786.786,0,0,1,.258.053,2.114,2.114,0,0,0,.517.076c.251.014.516.023.794.026s.471,0,.577,0c2.639-.061,3.958-.094,6.6-.167q.437-.012.735-.035c.2-.015.371-.034.517-.059s.238-.042.318-.054a1.776,1.776,0,0,1,.179-.02c.052,0,.079.048.079.148s0,.225-.011.375-.014.3-.021.443-.014.278-.021.4-.01.2-.01.24a.147.147,0,0,1-.16.168.1.1,0,0,1-.089-.042.491.491,0,0,1-.049-.179l-.019-.134a.514.514,0,0,0-.118-.267.834.834,0,0,0-.327-.209,2.447,2.447,0,0,0-.636-.133q-.407-.041-1.023-.041l-2.185.024Z" transform="translate(-240.563 -234.224)" fill="#fff"/>
        <path id="Path_29" data-name="Path 29" d="M411.195,246.431a8.749,8.749,0,0,1-2.748-1.248,6.022,6.022,0,0,1-1.179-1.071,5.278,5.278,0,0,1-.732-1.145,4.887,4.887,0,0,1-.374-1.168,6.209,6.209,0,0,1-.107-1.141,4.879,4.879,0,0,1,.1-.9,5.133,5.133,0,0,1,.351-1.083,6.045,6.045,0,0,1,.688-1.158,6.292,6.292,0,0,1,1.1-1.124,7.8,7.8,0,0,1,1.014-.688,7.3,7.3,0,0,1,1.313-.581,12.316,12.316,0,0,1,1.659-.423,15.054,15.054,0,0,1,2.075-.227q.6-.028,1.37-.025c.517,0,1.023.031,1.51.079.381.037.738.065,1.062.092s.651.039.963.05a.4.4,0,0,1,.208.046.139.139,0,0,1,.049.118,1.978,1.978,0,0,1-.03.283c-.02.124-.043.334-.072.623-.013.129-.024.278-.031.444s-.01.331-.011.492,0,.305-.011.435-.008.228-.01.29c-.007.22-.074.341-.179.345s-.159-.107-.158-.332a2.026,2.026,0,0,0-.216-.908,1.741,1.741,0,0,0-.614-.7,4.715,4.715,0,0,0-1.587-.569,9.637,9.637,0,0,0-2.382-.163,13.065,13.065,0,0,0-1.729.177,8.977,8.977,0,0,0-1.282.319,5.366,5.366,0,0,0-.925.4,4.738,4.738,0,0,0-.637.428,4.163,4.163,0,0,0-1.445,1.882,6.825,6.825,0,0,0-.353,2.209,4.523,4.523,0,0,0,.521,2.121,5.7,5.7,0,0,0,1.466,1.788,7.463,7.463,0,0,0,2.261,1.249,8.525,8.525,0,0,0,2.909.47,11.66,11.66,0,0,0,2-.157,3.061,3.061,0,0,0,1.461-.655,1.955,1.955,0,0,0,.508-.7,3.607,3.607,0,0,0,.231-.654c.034-.157.106-.243.2-.244a.108.108,0,0,1,.109.071.443.443,0,0,1,.029.169c0,.032-.014.132-.04.3s-.061.358-.1.572-.087.433-.14.653a3.935,3.935,0,0,1-.161.54,1.033,1.033,0,0,1-.169.3.986.986,0,0,1-.348.169,5,5,0,0,1-.715.169q-.417.073-.894.112t-.983.064q-.506.024-.983.024A14.819,14.819,0,0,1,411.195,246.431Z" transform="translate(-255.541 -232.209)" fill="#fff"/>
        <path id="Path_30" data-name="Path 30" d="M437.79,243.836q0,.775.007,1.326t.048.922a3.031,3.031,0,0,0,.108.584.657.657,0,0,0,.188.312,1.536,1.536,0,0,0,.754.253,12.21,12.21,0,0,0,1.568.069,11.522,11.522,0,0,0,1.242-.063,1.387,1.387,0,0,0,.865-.382,1.687,1.687,0,0,0,.269-.38,1.631,1.631,0,0,0,.15-.431c.024-.122.086-.186.179-.187s.119.072.119.218c0,.034-.007.11-.02.228s-.034.248-.061.389-.054.287-.08.439a2.486,2.486,0,0,1-.1.38,1.031,1.031,0,0,1-.09.211.278.278,0,0,1-.159.11,1.561,1.561,0,0,1-.308.051c-.132.011-.318.017-.556.017-1.219,0-2.237-.02-3.039-.047-.395-.013-.748-.019-1.053-.024s-.589-.008-.854-.007h-.258c-.133,0-.286.006-.457.017s-.364.019-.537.025-.331.008-.477.008c-.185,0-.278-.038-.278-.114s.047-.113.139-.114a2.438,2.438,0,0,0,.268-.017,2.339,2.339,0,0,0,.269-.049.418.418,0,0,0,.328-.238,3.2,3.2,0,0,0,.13-.5,7.5,7.5,0,0,0,.092-1.211q.012-.785.014-1.8c0-.982,0-1.473.005-2.455q0-.8,0-1.309l0-.818c0-.218,0-.39-.009-.515s-.017-.242-.029-.351a1.216,1.216,0,0,0-.158-.533q-.118-.174-.555-.2a2.512,2.512,0,0,0-.288-.012c-.126,0-.228,0-.308,0s-.139-.032-.139-.108.092-.118.278-.126.411-.015.636-.02.43-.011.616-.019.364-.014.5-.014.212,0,.238,0,.1-.007.259-.02.337-.024.536-.032.4-.021.615-.037.384-.026.517-.032c.185-.009.277.026.277.1s-.047.1-.139.106c-.067,0-.152.01-.258.02s-.212.024-.318.04a.758.758,0,0,0-.507.262,1.242,1.242,0,0,0-.15.558c-.006.1,0,.228-.01.355s-.011.3-.012.519,0,.484,0,.824l0,1.318Z" transform="translate(-268.434 -233.459)" fill="#fff"/>
        <path id="Path_31" data-name="Path 31" d="M452.732,240.342q0-.833,0-1.362l0-.851q0-.34-.009-.536t-.029-.365a1.35,1.35,0,0,0-.159-.537q-.119-.2-.555-.228a2.674,2.674,0,0,0-.287-.012c-.126,0-.229,0-.308.007s-.139-.032-.139-.111.093-.123.278-.133.407-.017.626-.023.42-.013.605-.022.367-.016.506-.018.228,0,.268,0,.129-.009.268-.023.294-.024.467-.032.37-.022.555-.037.344-.027.477-.034q.3-.016.3.105c0,.08-.053.123-.159.129l-.2.01a1.67,1.67,0,0,0-.238.047.642.642,0,0,0-.447.272,1.576,1.576,0,0,0-.15.565c-.013.116-.023.239-.03.37s-.01.313-.011.541l0,.857q0,.532,0,1.372l0,2.041a8.088,8.088,0,0,0,.1,1.362,4.954,4.954,0,0,0,.266.992,2.551,2.551,0,0,0,.406.7,3.68,3.68,0,0,0,.516.5,3.294,3.294,0,0,0,1.241.642,5.758,5.758,0,0,0,1.36.143,4.015,4.015,0,0,0,1.529-.3,3.318,3.318,0,0,0,1.173-.775,3.21,3.21,0,0,0,.806-1.579,10.511,10.511,0,0,0,.192-2.092l0-1.9,0-1.423c0-.367,0-.667-.009-.9s-.013-.414-.019-.55-.006-.266-.009-.382a1.212,1.212,0,0,0-.139-.561q-.118-.206-.555-.236a2.426,2.426,0,0,0-.287-.011c-.126,0-.228,0-.308.008s-.139-.034-.139-.116.093-.129.278-.14.4-.019.616-.026.4-.014.575-.024.341-.016.466-.018.2,0,.229,0c.065,0,.261-.021.585-.052s.619-.054.883-.069c.185-.01.277.026.277.11s-.046.128-.139.134l-.2.011a1.264,1.264,0,0,0-.239.05.692.692,0,0,0-.466.295,1.617,1.617,0,0,0-.15.581,3.624,3.624,0,0,0-.02.4v1.448q0,.556,0,1.431c0,.652,0,.977,0,1.628q0,.627-.061,1.263a6.462,6.462,0,0,1-.239,1.238,5.121,5.121,0,0,1-.5,1.139,3.323,3.323,0,0,1-.836.931,4.63,4.63,0,0,1-.964.588,5.858,5.858,0,0,1-.954.327,5.726,5.726,0,0,1-.914.15q-.447.035-.824.035c-.146,0-.357-.005-.636-.017a6.1,6.1,0,0,1-.933-.121,6.766,6.766,0,0,1-1.062-.309,3.517,3.517,0,0,1-1-.581,4.27,4.27,0,0,1-.595-.587,3.531,3.531,0,0,1-.485-.773,4.492,4.492,0,0,1-.326-1.036,7.149,7.149,0,0,1-.117-1.394C452.729,241.619,452.73,241.193,452.732,240.342Z" transform="translate(-275.864 -232.696)" fill="#fff"/>
        <path id="Path_32" data-name="Path 32" d="M479.785,239.5v-2.377q0-.366-.009-.576c-.007-.139-.017-.27-.029-.392a1.637,1.637,0,0,0-.159-.613q-.119-.212-.555-.241a2.346,2.346,0,0,0-.288-.01c-.126,0-.228,0-.308.009s-.139-.022-.139-.083q0-.127.277-.144c.2-.012.41-.021.635-.029s.437-.018.636-.029.367-.019.506-.022l.248-.005c.212-.013.5-.037.873-.072s.761-.066,1.171-.091a5.177,5.177,0,0,1,1.805.148,3.17,3.17,0,0,1,1.13.569,1.9,1.9,0,0,1,.576.769,2.112,2.112,0,0,1,.159.737,2.525,2.525,0,0,1-.149.878,3.216,3.216,0,0,1-.4.754,4.505,4.505,0,0,1-.566.654q-.318.3-.655.6a5.93,5.93,0,0,1,1.042.4,4.23,4.23,0,0,1,.992.666,3.53,3.53,0,0,1,.745.956,2.572,2.572,0,0,1,.3,1.239,3.476,3.476,0,0,1-.268,1.337,3.263,3.263,0,0,1-.815,1.156,4.04,4.04,0,0,1-1.37.808,5.626,5.626,0,0,1-1.937.3q-.239,0-.665-.009c-.285-.006-.572-.028-.844-.045s-.526-.021-.745-.026-.348-.009-.387-.009-.106,0-.238.01-.3,0-.477.01-.37.021-.556.028-.351.009-.5.01q-.278,0-.279-.127c0-.061.047-.091.139-.091a1.565,1.565,0,0,0,.269-.028c.1-.019.189-.035.268-.046a.371.371,0,0,0,.328-.275,5.258,5.258,0,0,0,.129-.586,9.3,9.3,0,0,0,.091-1.354q.01-.878.011-2.012C479.784,241.142,479.784,240.593,479.785,239.5Zm1.508.274c0,.1.043.15.119.162.051.008.162.021.327.034a7.178,7.178,0,0,0,.745,0,6.492,6.492,0,0,0,1.081-.1,1.213,1.213,0,0,0,.626-.369,2.912,2.912,0,0,0,.477-.731,2.34,2.34,0,0,0,.2-1,3.064,3.064,0,0,0-.139-.9,2.215,2.215,0,0,0-.436-.8,2.107,2.107,0,0,0-.763-.553,2.408,2.408,0,0,0-1.121-.166q-.159.01-.417.043a3.7,3.7,0,0,0-.475.084c-.142.038-.219.105-.219.179C481.294,237.293,481.294,238.118,481.293,239.77Zm0,1.732v2.046c0,.32,0,.6.01.838s.007.392.009.452c.006.178.026.341.04.469a.916.916,0,0,0,.079.313.651.651,0,0,0,.168.211,1.356,1.356,0,0,0,.308.183,2.7,2.7,0,0,0,.824.182q.466.035.705.034a4.286,4.286,0,0,0,.884-.1,2.146,2.146,0,0,0,.824-.37,2.026,2.026,0,0,0,.616-.758,2.862,2.862,0,0,0,.238-1.258,3.618,3.618,0,0,0-.069-.641,3.465,3.465,0,0,0-.248-.777,3.1,3.1,0,0,0-.506-.778,3.2,3.2,0,0,0-.844-.678,2.125,2.125,0,0,0-.853-.28q-.4-.034-.715-.079a1.726,1.726,0,0,0-.268-.019c-.126,0-.261,0-.407,0l-.4.013-.3.01q-.1,0-.1.114C481.292,240.983,481.292,241.156,481.292,241.5Z" transform="translate(-288.027 -232.369)" fill="#fff"/>
      </g>
    </g>
    <path id="Path_33" data-name="Path 33" d="M279.976,130.552c0-.133,0-.265,0-.4V108.634a2.218,2.218,0,0,0,0-.342c-.034-.212.052-.249.251-.248,1.655.009,3.311,0,4.967.008a8.773,8.773,0,0,1,2.18.109,10.172,10.172,0,0,1,1.143.275,16.651,16.651,0,0,1,1.528.719,7.812,7.812,0,0,1,1.874,1.521,7.422,7.422,0,0,1,.594.614,10.654,10.654,0,0,1,.977,1.763,2.966,2.966,0,0,1,.29.731,5.246,5.246,0,0,0,.255.871c.083.291.137.6.193.883.092.477.2.958.247,1.443s0,.955.1,1.44a9.078,9.078,0,0,1,.023,1.48,10.781,10.781,0,0,0-.117,1.494c0,.019.008.05,0,.056-.232.165-.006.453-.158.618-.175.19.016.427-.142.634a1.6,1.6,0,0,0-.155.616,12.2,12.2,0,0,1-.633,1.964,9.682,9.682,0,0,1-1.655,2.68,7.934,7.934,0,0,1-2.523,1.893,1.759,1.759,0,0,1-.637.259c-.049,0-.134.112-.124.152.015.062.1.15.153.152a4.785,4.785,0,0,1,.641.107c.583.106,1.162.221,1.742.342.664.139,1.323.313,1.963.511a21.3,21.3,0,0,1,3.5,1.341.755.755,0,0,0,.582.093,24.031,24.031,0,0,0,2.461-.949,12.1,12.1,0,0,0,2.489-1.7,10.264,10.264,0,0,0,1.78-2,21.216,21.216,0,0,0,1.33-2.132,13.411,13.411,0,0,0,1.283-3.468,1.859,1.859,0,0,1,.118-.627c.143-.228.065-.437.09-.651a3.339,3.339,0,0,0,.127-.7,23.907,23.907,0,0,0-.119-3.321,2.984,2.984,0,0,0-.1-.759c-.108-.233.059-.553-.132-.8a7.213,7.213,0,0,0-.463-1.921,5.764,5.764,0,0,0-.594-1.462,19.328,19.328,0,0,0-1.21-1.85c-.379-.448-.774-.883-1.159-1.325-.257-.3-.657-.463-.936-.744a6,6,0,0,0-1.479-.991c-.852-.458-1.737-.855-2.618-1.258a5.946,5.946,0,0,0-1.094-.389c-.658-.155-1.287-.413-1.961-.512-.4-.059-.789-.216-1.19-.288a5.47,5.47,0,0,1-.812-.106c-.25-.081-.534-.034-.81-.112a4.96,4.96,0,0,0-.908-.023c-.308-.026-.6-.116-.923-.116q-6.709.015-13.418.007H263.414a3.819,3.819,0,0,0-.456.007.184.184,0,0,0-.105.145.68.68,0,0,0,.666.646c.209.01.42-.013.628.006s.425.095.638.1.4.2.636.125a9.062,9.062,0,0,1,1.584,1.005,4.947,4.947,0,0,1,.916,1.166,3.874,3.874,0,0,1,.637,2.018q0,10.647,0,21.293c0,.133,0,.267,0,.4l0,4.435q-.007,8.163-.009,16.327a4.137,4.137,0,0,1-.129,1.03,6.376,6.376,0,0,1-1.243,2.053,4.744,4.744,0,0,1-1.674,1.058,2.9,2.9,0,0,1-1.383.251c-.188-.022-.381.01-.57-.008a.689.689,0,0,0-.486.2.485.485,0,0,0-.206.527c.059.155.267.05.407.075a.654.654,0,0,0,.114,0h21.868c.134,0,.267,0,.4,0s.227-.189.149-.277a1.182,1.182,0,0,0-.921-.531,3.315,3.315,0,0,1-1.157-.089,6.2,6.2,0,0,1-1.453-.632,6.832,6.832,0,0,1-1.165-1.037,5.68,5.68,0,0,1-.99-1.879,3.34,3.34,0,0,1-.13-1.256q-.011-9.305,0-18.61c0-.175,0-.349,0-.524" transform="translate(-58.578)" fill="#fff"/>
    <path id="Path_34" data-name="Path 34" d="M334.022,178.606c-.105-.241-.248-.529-.5-.562a8.14,8.14,0,0,0-.919-.13,6.483,6.483,0,0,1-1.493-.269,9.267,9.267,0,0,1-1.975-.877,4.827,4.827,0,0,1-1.083-.814,24.077,24.077,0,0,1-2.885-3.077,1.31,1.31,0,0,0-.515-.4,6.5,6.5,0,0,0-.912-.28c-.531-.143-1.064-.279-1.6-.416a5.825,5.825,0,0,0-1.088-.257c-.5-.027-.952-.238-1.446-.245-.023,0-.045-.042-.067-.064.013-.013.025-.035.041-.039a.529.529,0,0,1,.111-.009c.438,0,.876-.012,1.313,0a4.9,4.9,0,0,1,1.328.1,6.483,6.483,0,0,0,1.146.132c.067.008.127.069.194.08s.168.007.185-.028a.252.252,0,0,0,.006-.218c-.1-.136-.235-.243-.335-.378-.388-.522-.753-1.063-1.157-1.572a1.4,1.4,0,0,0-.6-.472c-.255-.083-.483-.215-.732-.3-.364-.13-.715-.3-1.083-.418s-.74-.143-1.086-.276-.687-.161-1.024-.282a4.694,4.694,0,0,0-1.088-.133.382.382,0,0,1-.161-.023.828.828,0,0,1-.145-.157.411.411,0,0,1,.151-.045,4.915,4.915,0,0,1,1.16.089,7.9,7.9,0,0,0,1.148.113,7.9,7.9,0,0,1,1.177.206c.364.129.789.1,1.1.385.021.019.118-.008.145-.041a.147.147,0,0,0-.006-.146c-.277-.248-.314-.67-.643-.878q-.807-1.236-1.613-2.472a1,1,0,0,0-.391-.353,18.22,18.22,0,0,0-1.88-.841,27.549,27.549,0,0,0-3.137-.974c-.468-.106-.933-.227-1.4-.342-.051-.012-.1-.032-.151-.048a.416.416,0,0,1,.129-.063c.941-.085,1.87.118,2.807.113a.312.312,0,0,1,.1.022,10.059,10.059,0,0,0,1.412.31,4.391,4.391,0,0,1,1.023.293.734.734,0,0,0,.194.036c0-.065.013-.143-.017-.193-.283-.474-.552-.959-.868-1.409a9.079,9.079,0,0,0-1.269-1.644c-.067-.059-.146-.146-.221-.148a13.242,13.242,0,0,1-1.4-.373c-.371-.05-.739-.254-1.119-.306a5.315,5.315,0,0,0-1.217-.242c-.24-.193-.539-.059-.8-.145a7.159,7.159,0,0,0-1.586-.292,8.324,8.324,0,0,0-.979-.136c-.03,0-.06-.036-.09-.054.027-.027.049-.067.081-.079a.986.986,0,0,1,.3-.089c.552-.009,1.106.026,1.655-.012.753-.052,1.49.116,2.237.122.039,0,.084-.014.113,0,.511.266,1.1.145,1.63.338.029.011.07-.009.106-.015-.014-.04-.017-.092-.044-.119a8.7,8.7,0,0,0-2.036-1.7,4.974,4.974,0,0,0-1.455-.9,6.424,6.424,0,0,0-1.212-.521c-.57-.178-1.116-.431-1.682-.622-.788-.266-1.587-.495-2.389-.719-.7-.2-1.431-.279-2.114-.541-.25.071-.455-.122-.7-.116a3.539,3.539,0,0,1-.7-.093c-.5-.089-1-.139-1.5-.239a5.524,5.524,0,0,1-1.435-.116c-1.3.05-2.592-.2-3.893-.121-.019,0-.039,0-.057,0a.2.2,0,0,1-.17-.044v1.6c.039-.133.167-.165.387-.191a8.562,8.562,0,0,1,.981.117,4.612,4.612,0,0,1,1.332.233,7.689,7.689,0,0,1,3.262,1.9c.224.217.4.481.61.715a5.43,5.43,0,0,1,.861,1.3c.39.828.752,1.669,1.153,2.49.248.506.5,1.015.746,1.521.2.409.4.824.583,1.241.063.14.046.23.213.07a20.229,20.229,0,0,1,1.964-1.866,14.275,14.275,0,0,1,1.584-1,1.169,1.169,0,0,1,.247-.092c.029-.008.068.015.1.025a.728.728,0,0,1-.078.086c-.1.081-.207.151-.3.238a16.136,16.136,0,0,0-1.588,1.906,9.961,9.961,0,0,0-1.245,2.286c-.034.086-.094.131-.033.24a8.006,8.006,0,0,1,.6,1.178c.154.438.43.811.575,1.247.13.387.446.681.535,1.093a1.235,1.235,0,0,0,.234.358,3.463,3.463,0,0,0,.3-.356,14.476,14.476,0,0,1,1.073-1.439,2.3,2.3,0,0,1,.5-.571,5.049,5.049,0,0,0,.624-.554c.244-.2.48-.4.723-.6.023-.018.074,0,.112,0,0,.04.01.1-.012.119a7.623,7.623,0,0,0-1.224,1.661c-.255.449-.447.924-.692,1.368a9.437,9.437,0,0,0-.511,1.5,1.026,1.026,0,0,0,.1.86c.327.531.636,1.076,1,1.582.233.324.5.627.724.957s.638.524.809.922c.017.038.138.054.2.04a.183.183,0,0,0,.115-.135,3.242,3.242,0,0,1,.3-1.246,5.773,5.773,0,0,1,1.14-2.038,2.91,2.91,0,0,1,.506-.4.264.264,0,0,1,.08-.029c.01.034.036.074.027.1a1.438,1.438,0,0,1-.086.135,4.637,4.637,0,0,0-.57,1.185c-.092.533-.5.988-.368,1.566-.243.206-.017.51-.154.735-.151.247-.03.515-.076.768a.359.359,0,0,0,.169.387,14.955,14.955,0,0,0,1.523,1.013,2.123,2.123,0,0,0,.759.384,2.675,2.675,0,0,1,.751.378c.141.07.3.113.443.172.592.237,1.207.4,1.818.576.653.189,1.323.3,1.978.463.312.08.639.028.919.124.224.077.446.029.641.1a1.156,1.156,0,0,0,.641.1c.241-.049.416.133.64.123,1.205-.057,2.4.144,3.607.125,2.417-.039,4.834-.012,7.251-.012.133,0,.267-.01.4,0C334.055,178.839,334.063,178.7,334.022,178.606Z" transform="translate(-73.024 -21.332)" fill="#ca9118"/>
    <g id="Group_6" data-name="Group 6" transform="translate(170.543 199.273)">
      <path id="Path_35" data-name="Path 35" d="M201.573,276.612h.9v5.5h3.4v.78h-4.3Z" transform="translate(-201.573 -276.612)" fill="#fff"/>
      <path id="Path_36" data-name="Path 36" d="M214.344,276.612h.9v6.278h-.9Z" transform="translate(-207.316 -276.612)" fill="#fff"/>
      <path id="Path_37" data-name="Path 37" d="M223.385,277.392v2.188h3.148v.771h-3.148v2.538h-.9v-6.278h4.431v.78Z" transform="translate(-210.978 -276.612)" fill="#fff"/>
      <path id="Path_38" data-name="Path 38" d="M240.483,282.11v.78h-4.556v-6.278h4.431v.78h-3.534v1.928h3.148v.763h-3.148v2.027Z" transform="translate(-217.02 -276.612)" fill="#fff"/>
      <path id="Path_39" data-name="Path 39" d="M249.137,286.495a.6.6,0,0,1,.61-.61.59.59,0,0,1,.592.61.6.6,0,0,1-.592.619A.607.607,0,0,1,249.137,286.495Z" transform="translate(-222.96 -280.782)" fill="#fff"/>
      <path id="Path_40" data-name="Path 40" d="M268.565,282.89l-1.354-1.928c-.125.009-.26.018-.394.018h-1.552v1.91h-.9v-6.278h2.449c1.632,0,2.619.825,2.619,2.188a1.981,1.981,0,0,1-1.381,1.982l1.489,2.108Zm-.026-4.09c0-.9-.6-1.408-1.749-1.408h-1.525v2.825h1.525C267.938,280.217,268.539,279.7,268.539,278.8Z" transform="translate(-229.809 -276.612)" fill="#fff"/>
      <path id="Path_41" data-name="Path 41" d="M283.862,282.11v.78h-4.556v-6.278h4.431v.78H280.2v1.928h3.148v.763H280.2v2.027Z" transform="translate(-236.526 -276.612)" fill="#fff"/>
      <path id="Path_42" data-name="Path 42" d="M291.457,282.056l.52-.61a1.565,1.565,0,0,0,1.309.745c.708,0,1.076-.43,1.076-1.273v-3.525h-2.269v-.78h3.157v4.26c0,1.4-.682,2.09-1.964,2.09A2.188,2.188,0,0,1,291.457,282.056Z" transform="translate(-241.99 -276.612)" fill="#fff"/>
      <path id="Path_43" data-name="Path 43" d="M304.668,280.181v-3.57h.9v3.534c0,1.39.637,2.018,1.767,2.018s1.775-.627,1.775-2.018v-3.534h.87v3.57a2.657,2.657,0,1,1-5.309,0Z" transform="translate(-247.93 -276.612)" fill="#fff"/>
      <path id="Path_44" data-name="Path 44" d="M325.422,276.612l-2.753,6.278h-.888l-2.763-6.278h.969l2.26,5.157,2.277-5.157Z" transform="translate(-254.383 -276.612)" fill="#fff"/>
      <path id="Path_45" data-name="Path 45" d="M339.751,282.11v.78h-4.556v-6.278h4.431v.78h-3.534v1.928h3.148v.763h-3.148v2.027Z" transform="translate(-261.657 -276.612)" fill="#fff"/>
      <path id="Path_46" data-name="Path 46" d="M354.6,276.612v6.278h-.735l-3.767-4.681v4.681h-.9v-6.278h.736l3.767,4.682v-4.682Z" transform="translate(-267.956 -276.612)" fill="#fff"/>
      <path id="Path_47" data-name="Path 47" d="M368.75,281.321h-3.337l-.691,1.569H363.8l2.843-6.278h.888l2.852,6.278h-.942Zm-.314-.718-1.354-3.076-1.354,3.076Z" transform="translate(-274.519 -276.612)" fill="#fff"/>
      <path id="Path_48" data-name="Path 48" d="M380.481,277.392h-2.152v-.78h5.192v.78h-2.152v5.5h-.888Z" transform="translate(-281.052 -276.612)" fill="#fff"/>
      <path id="Path_49" data-name="Path 49" d="M397.188,282.11v.78h-4.556v-6.278h4.43v.78h-3.533v1.928h3.147v.763h-3.147v2.027Z" transform="translate(-287.484 -276.612)" fill="#fff"/>
      <path id="Path_50" data-name="Path 50" d="M406.64,276.612h2.646a3.148,3.148,0,1,1,0,6.278H406.64Zm2.592,5.5a2.366,2.366,0,1,0,0-4.718h-1.7v4.718Z" transform="translate(-293.783 -276.612)" fill="#fff"/>
      <path id="Path_51" data-name="Path 51" d="M421.9,286.495a.6.6,0,0,1,.61-.61.59.59,0,0,1,.592.61.6.6,0,0,1-.592.619A.607.607,0,0,1,421.9,286.495Z" transform="translate(-300.646 -280.782)" fill="#fff"/>
    </g>
  </g>
</svg>
