<svg xmlns="http://www.w3.org/2000/svg" width="67.511" height="67.523" viewBox="0 0 67.511 67.523">
  <g id="Group_1292" data-name="Group 1292" transform="translate(-238 -5048.567)">
    <path id="Path_369" data-name="Path 369" d="M42.671,43h-.294a4.127,4.127,0,0,0-2.581.915l-8.308,6.827a3.593,3.593,0,0,0-2.5-2.788l-7.731-2.319a10.889,10.889,0,0,0-3.18-.457H17.8a10.889,10.889,0,0,0-5.444,1.481L1.544,52.952A1.089,1.089,0,0,0,1,53.889v9.8a1.094,1.094,0,0,0,1.089,1.089.817.817,0,0,0,.283,0l11.836-3.267H31.489a1.089,1.089,0,0,0,.708-.261L45.263,50.165A4.062,4.062,0,0,0,42.671,43Zm1.22,5.444L31.086,59.333H14.067a.817.817,0,0,0-.283,0L3.178,62.262V54.509l10.235-5.967a8.711,8.711,0,0,1,4.356-1.187h.272a8.5,8.5,0,0,1,2.5.37l7.731,2.319a1.4,1.4,0,0,1-.37,2.755H20.6v2.178h8.711a1.089,1.089,0,0,0,.686-.25L41.158,45.6a1.916,1.916,0,0,1,1.22-.425h.316a1.9,1.9,0,0,1,1.862,1.884,1.862,1.862,0,0,1-.664,1.437Z" transform="translate(237 5051.3)"/>
    <path id="Path_370" data-name="Path 370" d="M66,8.622H60.925L51.419,1.229A1.089,1.089,0,0,0,50.755,1h-29.4a4.356,4.356,0,1,0,0,8.711h10.8l-2.94,3.68a1.089,1.089,0,0,0-.24.675v2.178H26.8a3.267,3.267,0,0,0-3.267,3.267v4.356A3.267,3.267,0,0,0,26.8,27.133v2.178H23.533A1.089,1.089,0,0,0,22.444,30.4v6.533a1.089,1.089,0,0,0,1.089,1.089h1.089v8.711a1.089,1.089,0,0,0,.316.773l2.178,2.178a1.089,1.089,0,0,0,1.546,0l2.178-2.178a1.089,1.089,0,0,0,.316-.773V44.555a1.089,1.089,0,0,0-.12-.49L30.2,42.377l.838-1.688a1.089,1.089,0,0,0,.12-.49V38.022h1.089a1.089,1.089,0,0,0,1.089-1.089V30.4a1.089,1.089,0,0,0-1.089-1.089H28.978V27.133H39.866a3.267,3.267,0,0,0,3.267-3.267v-.152a4.453,4.453,0,0,0,1.089.152H66a1.089,1.089,0,0,0,1.089-1.089V9.711A1.089,1.089,0,0,0,66,8.622ZM28.978,39.938l-.969,1.949a1.089,1.089,0,0,0,0,.98l.969,1.949v1.47l-1.089,1.089L26.8,46.286V38.022h2.178Zm2.178-4.094H24.622V31.489h6.533Zm8.711-10.889H26.8a1.089,1.089,0,0,1-1.089-1.089V19.511A1.089,1.089,0,0,1,26.8,18.422H40.019a4.454,4.454,0,0,0-.152,1.089,4.356,4.356,0,0,0,1.089,2.853v1.5A1.089,1.089,0,0,1,39.866,24.955Zm1.5-8.711h-3.68v-.7l4.867-5.836h4.486l2.624,2.624v2.82H44.222A4.355,4.355,0,0,0,41.369,16.244Zm23.542,5.444H44.222a2.178,2.178,0,1,1,0-4.356h6.533a1.089,1.089,0,0,0,1.089-1.089V11.889a1.089,1.089,0,0,0-.316-.773L48.262,7.849a1.089,1.089,0,0,0-.773-.316H42.044a1.089,1.089,0,0,0-.838.392l-5.444,6.533a1.089,1.089,0,0,0-.25.7v1.089H31.155v-1.8L35.271,9.3a1.106,1.106,0,0,0-.849-1.764H21.356a2.178,2.178,0,1,1,0-4.356h29.03l9.506,7.393a1.089,1.089,0,0,0,.664.229h4.356Z" transform="translate(238.422 5047.567)"/>
  </g>
</svg>
