<svg xmlns="http://www.w3.org/2000/svg" width="27.275" height="19.512" viewBox="0 0 27.275 19.512">
  <g id="Group_10" data-name="Group 10" transform="translate(-318.811 -298.08)">
    <path id="Subtraction_1" data-name="Subtraction 1" d="M-3319.552,447.092c-.082,0-8.24-.006-10.265-.553a3.3,3.3,0,0,1-2.323-2.338,34.843,34.843,0,0,1-.549-6.365,34.845,34.845,0,0,1,.549-6.366,3.3,3.3,0,0,1,2.323-2.338c2.026-.546,10.183-.553,10.265-.553s8.24.006,10.265.553a3.3,3.3,0,0,1,2.324,2.338,34.83,34.83,0,0,1,.549,6.366,34.827,34.827,0,0,1-.549,6.365,3.3,3.3,0,0,1-2.324,2.338C-3311.312,447.086-3319.47,447.092-3319.552,447.092Zm-2.687-13.163v7.813l6.867-3.906-6.867-3.907Z" transform="translate(3652 -130)" fill="#fff" stroke="rgba(0,0,0,0)" stroke-miterlimit="10" stroke-width="1"/>
  </g>
</svg>
