<svg xmlns="http://www.w3.org/2000/svg" width="256" height="256" viewBox="0 0 256 256">
  <g id="Group_1297" data-name="Group 1297" transform="translate(-2681 623)">
    <rect id="Rectangle_3255" data-name="Rectangle 3255" width="256" height="256" transform="translate(2681 -623)" fill="none"/>
    <g id="Group_3" data-name="Group 3" transform="translate(2682.4 -612.963)">
      <path id="Path_16" data-name="Path 16" d="M339.212,220.2c.017-.591.007-1.18.007-1.771V122.518a9.9,9.9,0,0,0-.015-1.526c-.15-.944.233-1.109,1.118-1.1,7.377.039,14.757-.012,22.137.037,3.24.022,6.5-.346,9.715.486a45.345,45.345,0,0,1,5.094,1.224,74.22,74.22,0,0,1,6.811,3.206,34.809,34.809,0,0,1,8.353,6.779,33.031,33.031,0,0,1,2.649,2.735,47.485,47.485,0,0,1,4.355,7.856,13.229,13.229,0,0,1,1.293,3.259,23.334,23.334,0,0,0,1.135,3.882c.368,1.3.611,2.654.858,3.936.409,2.126.875,4.27,1.1,6.431.218,2.126.02,4.255.444,6.418.417,2.124.044,4.393.1,6.6.059,2.242-.89,4.4-.522,6.656.012.083.035.221,0,.248-1.032.733-.027,2.021-.7,2.754-.78.846.071,1.9-.633,2.825a7.12,7.12,0,0,0-.692,2.744,54.367,54.367,0,0,1-2.82,8.753,43.134,43.134,0,0,1-7.375,11.942,35.352,35.352,0,0,1-11.243,8.437,7.838,7.838,0,0,1-2.84,1.155c-.218.02-.6.5-.552.677.069.277.429.667.682.679a21.339,21.339,0,0,1,2.855.476c2.6.473,5.18.986,7.765,1.526,2.96.618,5.9,1.4,8.749,2.276a94.925,94.925,0,0,1,15.576,5.977,3.365,3.365,0,0,0,2.594.415,107.153,107.153,0,0,0,10.969-4.228,53.913,53.913,0,0,0,11.093-7.578,45.75,45.75,0,0,0,7.934-8.905,94.5,94.5,0,0,0,5.925-9.5,59.721,59.721,0,0,0,5.719-15.456,8.278,8.278,0,0,1,.528-2.8c.635-1.018.29-1.947.4-2.9.125-1.042.65-1.957.566-3.1-.353-4.922.508-9.889-.532-14.8-.233-1.1.091-2.217-.447-3.382-.48-1.04.265-2.465-.589-3.568-.105-2.995-1.177-5.766-2.065-8.56a25.7,25.7,0,0,0-2.649-6.514c-1.823-2.725-3.238-5.7-5.394-8.246-1.687-2-3.45-3.936-5.165-5.906-1.145-1.317-2.926-2.063-4.172-3.316a26.749,26.749,0,0,0-6.593-4.415c-3.8-2.041-7.743-3.811-11.667-5.6a26.5,26.5,0,0,0-4.873-1.732c-2.933-.692-5.734-1.839-8.741-2.281-1.791-.265-3.517-.964-5.305-1.283a24.381,24.381,0,0,1-3.62-.473c-1.116-.363-2.379-.152-3.608-.5-1.256-.356-2.7.007-4.047-.1-1.373-.115-2.7-.518-4.115-.515q-29.9.066-59.8.029H265.406a17.019,17.019,0,0,0-2.033.032.822.822,0,0,0-.468.645,3.033,3.033,0,0,0,2.97,2.877c.932.047,1.874-.059,2.8.027.954.086,1.894.422,2.845.461.988.042,1.795.885,2.833.557,2.413,1.4,4.944,2.588,7.059,4.481a22.058,22.058,0,0,1,4.081,5.2,17.266,17.266,0,0,1,2.84,8.994q-.011,47.446,0,94.89c0,.593-.022,1.189.007,1.781l.012,19.763q-.033,36.377-.042,72.758a18.446,18.446,0,0,1-.574,4.591c-.66,2.511-3.662,7.238-5.54,9.148a21.143,21.143,0,0,1-7.461,4.716,12.929,12.929,0,0,1-6.163,1.118c-.836-.1-1.7.047-2.541-.034a3.073,3.073,0,0,0-2.168.893,2.159,2.159,0,0,0-.92,2.347c.262.692,1.192.221,1.813.336a2.923,2.923,0,0,0,.508.005H362.71c.6,0,1.189.012,1.783-.005.534-.017,1.013-.841.664-1.234-1.1-1.226-2.18-2.391-4.1-2.364a14.776,14.776,0,0,1-5.155-.4,27.647,27.647,0,0,1-6.475-2.818,30.461,30.461,0,0,1-5.19-4.621c-2.3-2.4-3.2-5.486-4.412-8.373-.7-1.658-.581-3.718-.581-5.6q-.047-41.468-.022-82.934c0-.78,0-1.557,0-2.337" transform="translate(-262.838 -104.617)" fill="#122056"/>
      <path id="Path_17" data-name="Path 17" d="M469.023,270.368c-.469-1.074-1.106-2.359-2.249-2.506a36.249,36.249,0,0,0-4.1-.579,28.9,28.9,0,0,1-6.654-1.2c-3.117-.782-5.945-2.421-8.8-3.909a21.516,21.516,0,0,1-4.826-3.627c-4.53-4.331-9.124-8.621-12.859-13.713a5.836,5.836,0,0,0-2.3-1.778,28.942,28.942,0,0,0-4.064-1.246c-2.367-.638-4.743-1.243-7.12-1.852a25.924,25.924,0,0,0-4.849-1.145c-2.21-.12-4.243-1.062-6.445-1.091-.1,0-.2-.186-.3-.285.059-.059.11-.157.181-.172a2.354,2.354,0,0,1,.493-.039c1.952,0,3.9-.051,5.852.015,1.972.064,3.929-.179,5.918.427a28.908,28.908,0,0,0,5.109.589c.3.034.564.309.863.358.275.044.748.029.827-.123a1.124,1.124,0,0,0,.027-.974c-.434-.606-1.047-1.082-1.491-1.682-1.729-2.328-3.357-4.736-5.158-7.007a6.221,6.221,0,0,0-2.664-2.1c-1.138-.368-2.153-.959-3.262-1.354-1.624-.581-3.186-1.339-4.824-1.862-1.584-.5-3.3-.638-4.839-1.229-1.489-.572-3.061-.716-4.562-1.258a20.9,20.9,0,0,0-4.849-.591,1.7,1.7,0,0,1-.716-.1,3.711,3.711,0,0,1-.647-.7,1.832,1.832,0,0,1,.675-.2c1.707.221,3.394-.243,5.17.395,1.548.557,3.38.179,5.116.5a35.191,35.191,0,0,1,5.246.917c1.624.574,3.514.427,4.893,1.714.093.086.525-.034.645-.184a.657.657,0,0,0-.027-.652c-1.236-1.1-1.4-2.985-2.865-3.912q-3.594-5.507-7.186-11.017a4.466,4.466,0,0,0-1.744-1.572,81.137,81.137,0,0,0-8.378-3.75,122.768,122.768,0,0,0-13.98-4.341c-2.087-.473-4.16-1.01-6.237-1.523-.228-.054-.449-.142-.675-.216a1.855,1.855,0,0,1,.574-.28c4.192-.38,8.332.527,12.511.5a1.39,1.39,0,0,1,.466.1,44.823,44.823,0,0,0,6.291,1.381,19.572,19.572,0,0,1,4.557,1.3,3.273,3.273,0,0,0,.864.159c-.02-.289.056-.638-.076-.858-1.263-2.112-2.46-4.272-3.87-6.281-1.776-2.521-3.318-5.239-5.656-7.328-.3-.265-.65-.652-.983-.66-2.2-.057-4.047-1.369-6.225-1.661-1.656-.221-3.294-1.133-4.986-1.364-1.839-.255-3.517-1.248-5.423-1.077-1.069-.858-2.4-.265-3.551-.645a31.906,31.906,0,0,0-7.066-1.3,37.03,37.03,0,0,0-4.361-.608c-.132,0-.267-.16-.4-.243.12-.12.218-.3.363-.351a4.389,4.389,0,0,1,1.356-.4c2.46-.039,4.927.118,7.377-.051,3.358-.233,6.639.517,9.968.542.172,0,.373-.061.5.01,2.279,1.184,4.917.647,7.265,1.506.13.049.314-.042.471-.069-.061-.179-.073-.41-.2-.532-2.779-2.816-5.523-5.675-9.074-7.564-1.756-1.987-4.268-2.774-6.485-4.01a28.643,28.643,0,0,0-5.4-2.323c-2.538-.795-4.972-1.923-7.5-2.774-3.512-1.187-7.073-2.2-10.645-3.206-3.127-.878-6.379-1.243-9.423-2.411-1.113.316-2.026-.542-3.1-.518a15.781,15.781,0,0,1-3.113-.414c-2.217-.4-4.471-.618-6.7-1.064a27.776,27.776,0,0,0-3.3-.056,28.034,28.034,0,0,0-3.1-.461c-5.8.221-11.549-.893-17.347-.54-.084.007-.172-.007-.255,0a.9.9,0,0,1-.758-.2v7.13c.172-.591.746-.736,1.724-.854,1.523-.181,2.9.537,4.373.52a20.55,20.55,0,0,1,5.938,1.04,34.263,34.263,0,0,1,14.539,8.486c1,.969,1.79,2.144,2.72,3.188a24.2,24.2,0,0,1,3.836,5.791c1.736,3.689,3.35,7.439,5.138,11.1,1.1,2.254,2.234,4.525,3.323,6.779.88,1.822,1.769,3.671,2.6,5.531.28.623.2,1.025.949.314,2.9-2.781,5.467-5.916,8.751-8.314a63.618,63.618,0,0,1,7.061-4.471,5.221,5.221,0,0,1,1.1-.41c.13-.037.3.069.454.11a3.237,3.237,0,0,1-.345.383c-.439.36-.925.672-1.337,1.062a71.963,71.963,0,0,0-7.076,8.493,44.4,44.4,0,0,0-5.55,10.188c-.15.385-.417.584-.147,1.072a35.708,35.708,0,0,1,2.666,5.251c.684,1.95,1.916,3.615,2.563,5.555.581,1.727,1.987,3.036,2.384,4.871a5.505,5.505,0,0,0,1.045,1.6,15.358,15.358,0,0,0,1.337-1.587,64.444,64.444,0,0,1,4.78-6.411,10.23,10.23,0,0,1,2.222-2.543,22.49,22.49,0,0,0,2.781-2.467c1.086-.878,2.139-1.8,3.223-2.678.1-.081.329-.008.5-.005-.015.179.044.432-.054.53A33.968,33.968,0,0,0,361,218.7c-1.138,2-1.994,4.118-3.083,6.1-1.179,2.148-1.493,4.483-2.276,6.7a4.573,4.573,0,0,0,.434,3.831c1.459,2.367,2.835,4.795,4.454,7.049,1.037,1.442,2.208,2.793,3.225,4.265,1.032,1.5,2.843,2.337,3.605,4.11.073.169.615.243.9.177a.816.816,0,0,0,.513-.6c-.189-2.016.809-3.723,1.358-5.552a25.731,25.731,0,0,1,5.08-9.082,12.977,12.977,0,0,1,2.256-1.783,1.173,1.173,0,0,1,.355-.128c.044.149.162.329.12.446a6.332,6.332,0,0,1-.385.6c-.89,1.751-2.219,3.429-2.541,5.28-.409,2.376-2.249,4.4-1.638,6.98-1.081.917-.073,2.273-.687,3.276-.674,1.1-.135,2.3-.341,3.424a1.6,1.6,0,0,0,.755,1.724,66.671,66.671,0,0,0,6.789,4.515c1.082.564,1.955,1.543,3.382,1.709,1.163.135,2.217,1.126,3.345,1.685.63.312,1.317.505,1.972.768,2.636,1.055,5.378,1.776,8.1,2.565,2.909.844,5.9,1.319,8.817,2.065,1.39.356,2.847.123,4.1.554,1,.343,1.987.13,2.857.461a5.147,5.147,0,0,0,2.854.424c1.072-.218,1.854.594,2.85.547,5.371-.252,10.693.643,16.074.557,10.77-.174,21.544-.052,32.315-.052.593,0,1.192-.044,1.78.01C469.173,271.405,469.205,270.785,469.023,270.368Z" transform="translate(-216.172 -35.705)" fill="#ca9118"/>
    </g>
  </g>
</svg>
